<?xml version="1.0" encoding="utf-8"?>
<!-- Generator: Adobe Illustrator 16.0.0, SVG Export Plug-In . SVG Version: 6.00 Build 0)  -->
<!DOCTYPE svg PUBLIC "-//W3C//DTD SVG 1.1//EN" "http://www.w3.org/Graphics/SVG/1.1/DTD/svg11.dtd">
<svg version="1.1" id="Layer_1" xmlns="http://www.w3.org/2000/svg" xmlns:xlink="http://www.w3.org/1999/xlink" x="0px" y="0px"
	 width="300px" height="300px" viewBox="0 0 300 300" enable-background="new 0 0 300 300" xml:space="preserve">
<g id="Gene_Rocha_2_">
	<path fill="#8ac832" d="M237.507,12.026c-1.894,0.145-3.049,1.022-3.488,2.627l-2.835,8.299
		c-1.315,3.626-5.252,7.316-11.788,11.029c-6.558,3.701-12.441,5.552-17.684,5.552c-2.183,0-5.756-1.604-10.697-4.804
		c-13.822-8.739-29.387-13.102-46.695-13.102c-16.774,0-31.056,4.801-42.888,14.386c-1.241,0.481-2.3,0.728-3.155,0.728
		c-5.231,0-11.126-1.851-17.673-5.563c-6.547-3.713-10.473-7.393-11.789-11.027l-2.846-8.296c-0.417-1.599-1.583-2.466-3.477-2.615
		c-2.481-0.139-3.723,1.604-3.723,5.263c0,2.932,1.123,8.588,3.381,16.985c2.268,8.408,4.268,14.292,6.012,17.651
		c2.471,4.825,6.771,8.109,12.88,9.863c0.728,0.235,1.369,0.492,1.904,0.781c-3.755,8.397-5.638,17.726-5.638,27.985
		c0,24.443,9.682,42.438,29.012,53.916c-17.02,11.928-25.524,26.391-25.524,43.4c0,8.857,4.942,17.063,14.827,24.626v1.529
		c-20.936,7.103-31.419,19.095-31.419,35.955c0,13.063,7.231,23.6,21.727,31.592c14.485,7.99,33.345,11.98,56.634,11.98
		c24.145,0,44.566-5.82,61.233-17.459c16.656-11.648,24.979-25.834,24.979-42.576c0-14.549-5.938-24.808-17.822-30.766
		c-11.875-5.97-32.168-8.954-60.881-8.954c-19.234,0-32.874-1.584-40.876-4.771c-8.023-3.188-12.035-8.537-12.035-16.078
		c0-5.499,2.14-10.784,6.397-15.844c4.269-5.07,8.687-7.606,13.244-7.606c1.894,0,4.226,0.3,6.985,0.867
		c9.606,1.754,18.261,2.621,25.974,2.621c18.047,0,33.826-6.162,47.359-18.519c13.543-12.334,20.304-26.775,20.304-43.314
		c0-7.702-0.663-13.875-1.969-18.518c-0.438-1.755-0.652-3.113-0.652-4.13c0-1.732,1.38-3.06,4.141-3.926
		c6.119-1.743,10.419-5.038,12.901-9.863c1.722-3.369,3.733-9.242,5.99-17.641c2.257-8.408,3.392-14.064,3.392-16.995
		C241.229,13.636,239.978,11.893,237.507,12.026z"/>
</g>
</svg>
